<svg xmlns="http://www.w3.org/2000/svg" viewBox="0 0 64 64" fill="none">
  <!-- Person reaching to lift the lid -->
  <circle cx="13.5" cy="13" r="4.7" fill="#101828"/>
  <rect x="8.5" y="18" width="10" height="17" rx="4.6" fill="#101828"/>
  <rect x="9.6" y="33" width="3.5" height="21" rx="1.7" fill="#101828"/>
  <rect x="14" y="33" width="3.5" height="21" rx="1.7" fill="#101828"/>
  <path d="M17.6 21 30 18.6" stroke="#101828" stroke-width="3.5" stroke-linecap="round"/>

  <!-- Bin standing on its own -->
  <path d="M31 26.5h23l-2.4 26.2A2.6 2.6 0 0 1 49 55H36a2.6 2.6 0 0 1-2.6-2.3z" fill="#15803d"/>
  <path d="M39 31v20M46 31v20" stroke="#ffffff" stroke-width="1.7" stroke-linecap="round" opacity="0.5"/>
  <rect x="29" y="22" width="27" height="4.6" rx="2.3" fill="#15803d"/>

  <!-- Lid, lifted open on the person's side -->
  <path d="M30.6 18.4 51.4 23.8l-.9 3.2-20.8-5.4z" fill="#166534"/>
  <circle cx="30" cy="19.3" r="2.4" fill="#166534"/>
</svg>
